<!DOCTYPE svg PUBLIC "-//W3C//DTD SVG 1.1//EN" "http://www.w3.org/Graphics/SVG/1.1/DTD/svg11.dtd">
<!-- Uploaded to: SVG Repo, www.svgrepo.com, Transformed by: SVG Repo Mixer Tools -->
<svg fill="#000000" version="1.1" id="Capa_1" xmlns="http://www.w3.org/2000/svg" xmlns:xlink="http://www.w3.org/1999/xlink" width="800px" height="800px" viewBox="0 0 423.414 423.413" xml:space="preserve">
<g id="SVGRepo_bgCarrier" stroke-width="0"/>
<g id="SVGRepo_tracerCarrier" stroke-linecap="round" stroke-linejoin="round"/>
<g id="SVGRepo_iconCarrier"> <g> <g id="Layer_2_38_"> <g> <polygon points="193.503,228.766 175.396,192.075 157.288,228.766 116.797,234.648 146.097,263.209 139.181,303.536 175.396,284.496 211.611,303.536 204.694,263.209 233.995,234.648 "/> <path d="M394.106,15.026C365.43-9.988,318.301-3.054,289.042,30.484c-8.914,10.218-15.141,21.746-18.701,33.542h-38.823 L8.039,287.506l135.907,135.907l223.479-223.479l0.001-58.122c9.523-5.159,18.256-12.157,25.617-20.596 c13.955-15.995,21.879-35.668,22.313-55.397C415.803,45.412,408.257,27.373,394.106,15.026z M340.542,188.799L143.945,385.395 l-97.889-97.889L242.654,90.91h24.216c0.601,13.433,4.812,26.161,12.633,36.597c-3.031,6.804-1.774,15.054,3.807,20.636 c7.236,7.235,18.967,7.235,26.2,0s7.233-18.964,0-26.199c-3.652-3.654-8.454-5.456-13.243-5.419 c-5.733-7.132-8.879-16.041-9.469-25.615h53.745V188.799z M377.973,108.068c-3.22,3.69-6.763,7.021-10.547,9.947v-53.99 l-75.954,0.001c2.903-7.127,7.12-14.067,12.641-20.394c22.011-25.228,56.482-31.302,76.846-13.536 c9.604,8.378,14.719,20.909,14.402,35.284C395.03,80.436,388.855,95.596,377.973,108.068z"/> </g> </g> </g> </g>
</svg>